<svg xmlns="http://www.w3.org/2000/svg" xmlns:xlink="http://www.w3.org/1999/xlink" width="64" height="64" viewBox="0 0 64 64" fill="none">

<g  clip-path="url(#clip-path-1DLmuCB_FBhIF-CMzfoN0)">
<path d="M68 32.1325C59.8667 32.7812 37.1341 34.6536 37.1341 34.6536C36.7529 32.3824 37.5131 27.3799 37.5131 27.3799C51.2523 29.6093 65.1768 30.4447 67.949 30.3503L68 24.8085C52.6831 23.9625 39.5272 14.7197 39.5272 14.7197C32.203 8.83554 23.8356 10.1182 23.8356 10.1182C23.6209 10.126 23.4067 10.1384 23.1925 10.1554C22.9784 10.1723 22.7648 10.1938 22.5517 10.2199C22.3386 10.2459 22.1261 10.2765 21.9143 10.3116C21.7024 10.3466 21.4915 10.3863 21.2816 10.4304C21.0714 10.4745 20.8625 10.523 20.6545 10.5759C20.4466 10.6289 20.2398 10.6862 20.0345 10.7479C19.8291 10.8097 19.625 10.8758 19.4225 10.9462C19.22 11.0167 19.019 11.0914 18.8198 11.1704C18.6206 11.2493 18.4231 11.3325 18.2275 11.4199C18.0318 11.5072 17.8382 11.5987 17.6466 11.6944C17.4549 11.79 17.2656 11.8896 17.0782 11.9934C16.8909 12.097 16.7061 12.2046 16.5235 12.3162C16.341 12.4277 16.161 12.5431 15.9835 12.6623C15.806 12.7815 15.6311 12.9044 15.459 13.0311C15.2869 13.1577 15.1176 13.288 14.9512 13.4218C14.7848 13.5556 14.6214 13.6929 14.461 13.8338C10.8713 16.947 7.62011 21.1558 4.83742 25.2115C1.53083 30.0018 0.142704 35.1974 2.97219 40.7372C3.87922 42.5152 5.08003 44.1505 6.32352 45.5843C6.61099 45.9285 7.66484 47.4148 8.13756 47.4148C5.9828 48.649 2.77212 50.5824 0 52.6627L6.41079 52.6627C6.41079 52.6627 10.5732 49.8456 14.7889 47.5679C17.5631 47.6162 20.7207 47.6667 23.3586 47.7653C21.5447 49.0017 17.6653 51.5754 14.7889 54L21.1486 54C21.1486 54 33.1142 46.0356 43.0169 44.2491L42.0076 44.4044C61.8255 39.358 67.9915 39.062 67.9915 39.062L68 32.1325ZM8.03959 33.3206C5.84023 33.3206 4.06446 32.2816 4.06446 30.9948C4.06446 29.7079 5.83172 28.6667 8.03959 28.6667C10.2411 28.6667 12.0061 29.7017 12.0061 30.9968C12.0061 32.2774 10.2411 33.3206 8.03959 33.3206ZM19.3346 20.8535L11.295 20.4505C11.295 20.4505 14.9337 15.5006 16.0812 15.2087L21.0124 15.3074L19.3303 20.8535L19.3346 20.8535ZM22.9243 15.4648L29.8588 15.658L29.9036 21.2461L21.5829 20.9521L22.9243 15.4606L22.9243 15.4648ZM22.6858 30.9926C22.6858 29.7059 24.453 28.6647 26.6567 28.6647C28.8582 28.6647 30.6253 29.6995 30.6253 30.9948C30.6253 32.2752 28.8582 33.3186 26.6567 33.3186C24.453 33.3186 22.6858 32.2794 22.6858 30.9926Z"   fill="#00BCD9" >
</path>
</g>
<defs>
<clipPath id="clip-path-1DLmuCB_FBhIF-CMzfoN0">
<path d="M0 64L64 64L64 0L0 0L0 64Z" fill="white"/>
</clipPath>
</defs>
</svg>
